#!OML:ASF H:\ManfredETheater\Project 1\Capture day 1\Session 1\subject.ASF
:FULLY-SPECIFIED
:DEGREES
62
root 1.70651 17.1604 34.1443 -175.546 -4.74777 178.885
lowerback -0.728938 -0.980706 -3.09392
upperback -4.41372 -1.51852 1.28608
thorax -4.03407 -0.703941 3.10986
lowerneck -19.3439 -1.26015 -3.10097
upperneck 24.174 -1.86293 1.5613
head 11.0733 -1.18747 0.758609
rclavicle 2.11954e-014 3.97569e-015
rhumerus -37.4516 -7.67727 -80.6664
rradius 28.5879
rwrist 3.7481
rhand -18.7856 -11.1805
rfingers 7.12502
rthumb 7.51212 -41.0271
lclavicle 2.11954e-014 3.97569e-015
lhumerus -33.0012 6.25589 87.4862
lradius 26.4116
lwrist -18.433
lhand -11.0574 9.27798
lfingers 7.12502
lthumb 14.9652 38.7173
rfemur -12.5298 -0.234973 16.4919
rtibia 33.471
rfoot -21.4761 -13.6595
rtoes 6.16703
lfemur -15.3204 -4.72103 -18.7751
ltibia 35.3614
lfoot -21.1483 2.34444
ltoes 0.164745
63
root 1.70659 17.1603 34.1447 -175.547 -4.73047 178.884
lowerback -0.739478 -0.982559 -3.09133
upperback -4.40915 -1.52052 1.28259
thorax -4.0233 -0.705308 3.10447
lowerneck -19.3518 -1.25549 -3.08984
upperneck 24.1909 -1.8651 1.57468
head 11.0813 -1.18633 0.761137
rclavicle -3.35449e-015 1.19271e-014
rhumerus -37.4757 -7.7361 -80.6201
rradius 28.5368
rwrist 3.80357
rhand -18.7792 -11.1462
rfingers 7.12502
rthumb 7.51832 -40.9925
lclavicle -3.35449e-015 1.19271e-014
lhumerus -32.9615 6.18733 87.5722
lradius 26.4334
lwrist -18.4034
lhand -11.049 9.38576
lfingers 7.12502
lthumb 14.9733 38.8245
rfemur -12.5348 -0.228018 16.4884
rtibia 33.4738
rfoot -21.4747 -13.6491
rtoes 6.16212
lfemur -15.3196 -4.71361 -18.778
ltibia 35.363
lfoot -21.1471 2.35465
ltoes 0.148864
64
root 1.70663 17.1602 34.145 -175.548 -4.71688 178.881
lowerback -0.757801 -0.985558 -3.08939
upperback -4.39812 -1.52337 1.27828
thorax -4.0013 -0.707225 3.09828
lowerneck -19.3633 -1.25157 -3.0777
upperneck 24.2004 -1.86707 1.58693
head 11.087 -1.18468 0.763173
rclavicle 3.56818e-014 -8.34896e-015
rhumerus -37.4896 -7.80012 -80.5745
rradius 28.4844
rwrist 3.86245
rhand -18.7738 -11.1114
rfingers 7.12502
rthumb 7.52347 -40.9576
lclavicle 3.56818e-014 -8.34896e-015
lhumerus -32.9128 6.12447 87.6561
lradius 26.4515
lwrist -18.3697
lhand -11.029 9.47951
lfingers 7.12502
lthumb 14.9926 38.9168
rfemur -12.5391 -0.223527 16.4833
rtibia 33.4775
rfoot -21.4739 -13.64
rtoes 6.16026
lfemur -15.3183 -4.70737 -18.7826
ltibia 35.3639
lfoot -21.1463 2.36124
ltoes 0.136342
65
root 1.70667 17.1601 34.1455 -175.548 -4.70271 178.876
lowerback -0.781696 -0.98828 -3.08915
upperback -4.383 -1.52545 1.27304
thorax -3.97192 -0.708808 3.09182
lowerneck -19.3745 -1.24757 -3.06464
upperneck 24.2018 -1.86812 1.59867
head 11.0897 -1.18222 0.765064
rclavicle 2.18663e-015 -9.14409e-015
rhumerus -37.4964 -7.86705 -80.5309
rradius 28.4325
rwrist 3.92075
rhand -18.7701 -11.0885
rfingers 7.12502
rthumb 7.52705 -40.9345
lclavicle 2.18663e-015 -9.14409e-015
lhumerus -32.8606 6.06848 87.7361
lradius 26.4678
lwrist -18.3338
lhand -11.0037 9.54539
lfingers 7.12502
lthumb 15.0169 38.9808
rfemur -12.545 -0.219157 16.4759
rtibia 33.4825
rfoot -21.4723 -13.6312
rtoes 6.15781
lfemur -15.3172 -4.70135 -18.7895
ltibia 35.3641
lfoot -21.1452 2.3671
ltoes 0.129944
66
root 1.70671 17.16 34.146 -175.548 -4.68731 178.872
lowerback -0.803024 -0.990584 -3.08933
upperback -4.36875 -1.52705 1.26957
thorax -3.9449 -0.710059 3.08752
lowerneck -19.3844 -1.24261 -3.05277
upperneck 24.2009 -1.86701 1.60959
head 11.0912 -1.17893 0.767208
rclavicle -4.29872e-015 -6.75868e-015
rhumerus -37.5037 -7.92867 -80.4886
rradius 28.3837
rwrist 3.97182
rhand -18.7727 -11.0838
rfingers 7.12502
rthumb 7.52455 -40.93
lclavicle -4.29872e-015 -6.75868e-015
lhumerus -32.8129 6.02221 87.8128
lradius 26.4831
lwrist -18.2958
lhand -10.9652 9.58821
lfingers 7.12502
lthumb 15.054 39.0209
rfemur -12.5523 -0.213941 16.4696
rtibia 33.4884
rfoot -21.4705 -13.622
rtoes 6.15893
lfemur -15.3163 -4.69529 -18.7953
ltibia 35.3637
lfoot -21.1437 2.37296
ltoes 0.129676
67
root 1.70675 17.16 34.1465 -175.549 -4.67292 178.867
lowerback -0.818541 -0.993056 -3.09109
upperback -4.35716 -1.52918 1.26733
thorax -3.92386 -0.711394 3.0856
lowerneck -19.3907 -1.23727 -3.04054
upperneck 24.197 -1.86456 1.61727
head 11.0909 -1.17538 0.768341
rclavicle -2.65874e-015 -1.11319e-014
rhumerus -37.514 -7.98698 -80.4469
rradius 28.3384
rwrist 4.0161
rhand -18.7791 -11.1059
rfingers 7.12502
rthumb 7.51836 -40.9523
lclavicle -2.65874e-015 -1.11319e-014
lhumerus -32.7731 5.9855 87.8853
lradius 26.4965
lwrist -18.2619
lhand -10.9299 9.59596
lfingers 7.12502
lthumb 15.088 39.0261
rfemur -12.5595 -0.210021 16.4632
rtibia 33.4951
rfoot -21.4692 -13.6132
rtoes 6.16117
lfemur -15.3148 -4.68997 -18.8013
ltibia 35.363
lfoot -21.1425 2.3773
ltoes 0.136338
68
root 1.70678 17.1599 34.1471 -175.549 -4.65759 178.863
lowerback -0.830892 -0.995218 -3.09351
upperback -4.34732 -1.53109 1.26627
thorax -3.90641 -0.712516 3.08538
lowerneck -19.3966 -1.23108 -3.02862
upperneck 24.1932 -1.86055 1.62398
head 11.0904 -1.17129 0.769407
rclavicle -7.23079e-015 9.14409e-015
rhumerus -37.5269 -8.03947 -80.4079
rradius 28.2996
rwrist 4.05039
rhand -18.791 -11.1629
rfingers 7.12502
rthumb 7.50688 -41.0097
lclavicle -7.23079e-015 9.14409e-015
lhumerus -32.7397 5.94731 87.9593
lradius 26.5139
lwrist -18.2211
lhand -10.901 9.60039
lfingers 7.12502
lthumb 15.1158 39.0284
rfemur -12.5679 -0.205431 16.4573
rtibia 33.5024
rfoot -21.467 -13.6053
rtoes 6.1603
lfemur -15.314 -4.68537 -18.8068
ltibia 35.3623
lfoot -21.1413 2.38327
ltoes 0.142649
69
root 1.70675 17.1599 34.1477 -175.548 -4.64371 178.859
lowerback -0.838308 -0.997467 -3.09584
upperback -4.34099 -1.53349 1.2654
thorax -3.89539 -0.713796 3.08551
lowerneck -19.3994 -1.22424 -3.01656
upperneck 24.1898 -1.85583 1.63
head 11.0895 -1.16707 0.770306
rclavicle -8.29926e-015 -8.34896e-015
rhumerus -37.5444 -8.09119 -80.3687
rradius 28.2624
rwrist 4.08104
rhand -18.8039 -11.2225
rfingers 7.12502
rthumb 7.49445 -41.0697
lclavicle -8.29926e-015 -8.34896e-015
lhumerus -32.7165 5.90622 88.034
lradius 26.5363
lwrist -18.1746
lhand -10.8801 9.59576
lfingers 7.12502
lthumb 15.136 39.0223
rfemur -12.5773 -0.203327 16.451
rtibia 33.5101
rfoot -21.4644 -13.5963
rtoes 6.15937
lfemur -15.3142 -4.68226 -18.8126
ltibia 35.3615
lfoot -21.1396 2.39011
ltoes 0.150061
70
root 1.70668 17.1598 34.1482 -175.547 -4.62788 178.856
lowerback -0.842147 -0.998363 -3.09785
upperback -4.3375 -1.53438 1.26507
thorax -3.88947 -0.714258 3.08614
lowerneck -19.4018 -1.21735 -3.0025
upperneck 24.1886 -1.85108 1.63282
head 11.0892 -1.16316 0.769694
rclavicle 4.4975e-015 -1.39149e-014
rhumerus -37.5657 -8.14457 -80.3281
rradius 28.2257
rwrist 4.11239
rhand -18.812 -11.2661
rfingers 7.12502
rthumb 7.48657 -41.1136
lclavicle 4.4975e-015 -1.39149e-014
lhumerus -32.7016 5.85945 88.1105
lradius 26.5636
lwrist -18.122
lhand -10.8572 9.59301
lfingers 7.12502
lthumb 15.158 39.0179
rfemur -12.5878 -0.200069 16.4454
rtibia 33.5177
rfoot -21.462 -13.5864
rtoes 6.15929
lfemur -15.315 -4.67825 -18.8177
ltibia 35.3612
lfoot -21.1383 2.39907
ltoes 0.155414
71
root 1.70652 17.1598 34.1487 -175.544 -4.61156 178.852
lowerback -0.846402 -0.998779 -3.09999
upperback -4.33492 -1.53472 1.26426
thorax -3.88432 -0.714457 3.08636
lowerneck -19.4039 -1.21021 -2.98804
upperneck 24.1876 -1.84604 1.6353
head 11.089 -1.15914 0.768938
rclavicle 2.05991e-014 -1.59028e-015
rhumerus -37.5878 -8.20172 -80.2861
rradius 28.189
rwrist 4.14745
rhand -18.8155 -11.2706
rfingers 7.12502
rthumb 7.48327 -41.1182
lclavicle 2.05991e-014 -1.59028e-015
lhumerus -32.692 5.8053 88.1891
lradius 26.5958
lwrist -18.0645
lhand -10.8384 9.59579
lfingers 7.12502
lthumb 15.1762 39.0193
rfemur -12.5999 -0.198565 16.438
rtibia 33.5249
rfoot -21.4584 -13.5746
rtoes 6.1548
lfemur -15.3176 -4.6753 -18.8244
ltibia 35.3612
lfoot -21.1363 2.41028
ltoes 0.154312
72
root 1.70632 17.1597 34.1492 -175.541 -4.59865 178.85
lowerback -0.849433 -1.0001 -3.09999
upperback -4.33313 -1.53632 1.26398
thorax -3.88062 -0.71533 3.08598
lowerneck -19.4055 -1.20347 -2.97341
upperneck 24.1865 -1.84146 1.63695
head 11.0886 -1.15544 0.767775
rclavicle -3.40419e-015 0
rhumerus -37.6109 -8.26216 -80.2425
rradius 28.1501
rwrist 4.18965
rhand -18.8143 -11.2354
rfingers 7.12502
rthumb 7.48438 -41.083
lclavicle -3.40419e-015 0
lhumerus -32.6881 5.74353 88.2695
lradius 26.6335
lwrist -18.0023
lhand -10.8183 9.60738
lfingers 7.12502
lthumb 15.1955 39.0294
rfemur -12.6106 -0.197869 16.4329
rtibia 33.5311
rfoot -21.4559 -13.5643
rtoes 6.15299
lfemur -15.3203 -4.67362 -18.8288
ltibia 35.3618
lfoot -21.1355 2.41992
ltoes 0.152956
73
root 1.70608 17.1597 34.1496 -175.538 -4.58308 178.849
lowerback -0.854574 -1.00045 -3.09769
upperback -4.33088 -1.53652 1.26361
thorax -3.87539 -0.71563 3.08414
lowerneck -19.4048 -1.19696 -2.95904
upperneck 24.1834 -1.83729 1.63935
head 11.087 -1.15182 0.766887
rclavicle -3.08365e-014 1.03368e-014
rhumerus -37.632 -8.3266 -80.1993
rradius 28.1093
rwrist 4.23686
rhand -18.8067 -11.1571
rfingers 7.12502
rthumb 7.49174 -41.0044
lclavicle -3.08365e-014 1.03368e-014
lhumerus -32.6885 5.67374 88.3507
lradius 26.6766
lwrist -17.9371
lhand -10.7928 9.6238
lfingers 7.12502
lthumb 15.2201 39.0439
rfemur -12.6218 -0.195467 16.4289
rtibia 33.5363
rfoot -21.4522 -13.5532
rtoes 6.14613
lfemur -15.3231 -4.67119 -18.8319
ltibia 35.3624
lfoot -21.1343 2.4313
ltoes 0.151666
74
root 1.70581 17.1597 34.15 -175.535 -4.57079 178.848
lowerback -0.863005 -1.00208 -3.09317
upperback -4.32698 -1.5382 1.26307
thorax -3.86652 -0.716809 3.08077
lowerneck -19.4036 -1.19053 -2.94508
upperneck 24.1785 -1.83321 1.64273
head 11.0848 -1.1481 0.766425
rclavicle 3.10601e-015 3.97569e-015
rhumerus -37.6502 -8.39074 -80.1589
rradius 28.0689
rwrist 4.28527
rhand -18.7925 -11.0636
rfingers 7.12502
rthumb 7.50544 -40.9104
lclavicle 3.10601e-015 3.97569e-015
lhumerus -32.6904 5.59636 88.4321
lradius 26.7236
lwrist -17.8679
lhand -10.759 9.6485
lfingers 7.12502
lthumb 15.2526 39.0662
rfemur -12.6306 -0.194444 16.4265
rtibia 33.5398
rfoot -21.4499 -13.5439
rtoes 6.13959
lfemur -15.3257 -4.67071 -18.8334
ltibia 35.3634
lfoot -21.1341 2.44032
ltoes 0.154214
